<svg height="25px" viewBox="-15 0 512 512.002" width="25px" xmlns="http://www.w3.org/2000/svg"><g fill-rule="evenodd"><path d="m296.207031 326.765625v-271.066406c0-30.710938-24.996093-55.699219-55.722656-55.699219-30.714844 0-55.699219 24.988281-55.699219 55.699219v271.066406c-28.0625 18.613281-45.265625 50.371094-45.265625 84.242187 0 55.6875 45.292969 100.996094 100.964844 100.996094 55.6875 0 100.992187-45.308594 100.992187-100.996094 0-33.871093-17.203124-65.628906-45.269531-84.242187zm-55.722656 165.222656c-44.640625 0-80.957031-36.328125-80.957031-80.980469 0-28.730468 15.441406-55.570312 40.296875-70.039062 3.078125-1.792969 4.972656-5.085938 4.972656-8.648438v-276.621093c0-19.679688 16.007813-35.6875 35.6875-35.6875 19.691406 0 35.714844 16.007812 35.714844 35.6875v276.621093c0 3.5625 1.894531 6.855469 4.972656 8.648438 24.855469 14.46875 40.296875 41.308594 40.296875 70.039062-.003906 44.652344-36.332031 80.980469-80.984375 80.980469zm0 0" fill="#FFFFFF" /><path d="m240.484375 215.820312c5.523437 0 10.003906-4.480468 10.003906-10.003906v-151.988281c0-5.523437-4.476562-10.007813-10.003906-10.007813s-10.007813 4.480469-10.007813 10.007813v151.988281c0 5.523438 4.480469 10.003906 10.007813 10.003906zm0 0" fill="#FFFFFF"/><path fill="#FFFFFF" d="m10.007812 91.753906h16.980469v64.230469c0 5.527344 4.476563 10.003906 10.003907 10.003906h81.011718c5.523438 0 10.003906-4.476562 10.003906-10.003906v-64.230469h16.980469c4.132813 0 7.839844-2.542968 9.332031-6.398437 1.492188-3.855469.457032-8.230469-2.601562-11.011719l-33.734375-30.675781-33.761719-30.640625c-3.816406-3.460938-9.636718-3.460938-13.453125.003906l-67.488281 61.3125c-3.0625 2.777344-4.097656 7.152344-2.605469 11.011719 1.488281 3.855469 5.199219 6.398437 9.332031 6.398437zm67.492188-57.800781 41.609375 37.789063h-1.105469c-5.527344 0-10.007812 4.480468-10.007812 10.003906v64.230468h-61v-64.230468c0-5.523438-4.476563-10.003906-10.003906-10.003906h-1.089844zm0 0"/><path fill="#FFFFFF" d="m480.519531 310.628906c-1.492187-3.855468-5.199219-6.398437-9.335937-6.398437h-16.976563v-64.230469c0-5.527344-4.480469-10.007812-10.007812-10.007812h-81.007813c-5.527344 0-10.007812 4.480468-10.007812 10.007812v64.230469h-16.980469c-4.132813 0-7.839844 2.542969-9.332031 6.398437-1.488282 3.855469-.457032 8.230469 2.601562 11.011719l33.738282 30.675781 33.761718 30.640625c1.90625 1.730469 4.3125 2.597657 6.722656 2.597657 2.410157 0 4.816407-.867188 6.726563-2.597657l33.765625-30.648437 33.730469-30.667969c3.058593-2.78125 4.089843-7.15625 2.601562-11.011719zm-76.824219 51.40625-41.613281-37.792968h1.109375c5.523438 0 10.003906-4.480469 10.003906-10.003907v-64.230469h61v64.230469c0 5.523438 4.476563 10.003907 10.003907 10.003907h1.109375zm0 0"/><path fill="#FFFFFF" d="m154.992188 197.992188c0-5.527344-4.480469-10.003907-10.003907-10.003907h-134.980469c-5.527343 0-10.00390575 4.476563-10.00390575 10.003907 0 5.527343 4.47656275 10.007812 10.00390575 10.007812h134.980469c5.523438 0 10.003907-4.480469 10.003907-10.007812zm0 0"/><path fill="#FFFFFF" d="m336.203125 208h134.980469c5.527344 0 10.007812-4.480469 10.007812-10.007812 0-5.527344-4.480468-10.003907-10.007812-10.003907h-134.980469c-5.523437 0-10.003906 4.476563-10.003906 10.003907 0 5.527343 4.480469 10.007812 10.003906 10.007812zm0 0"/><path fill="#FFFFFF" d="m250.488281 360.488281v-74.683593c0-5.527344-4.476562-10.003907-10.003906-10.003907s-10.007813 4.476563-10.007813 10.003907v74.683593c-23.625 4.667969-41.496093 25.542969-41.496093 50.515625 0 28.402344 23.101562 51.503906 51.503906 51.503906 28.398437 0 51.5-23.101562 51.5-51.503906 0-24.972656-17.871094-45.847656-41.496094-50.515625zm-10.003906 82.007813c-17.367187 0-31.492187-14.125-31.492187-31.492188 0-17.363281 14.125-31.488281 31.492187-31.488281 17.363281 0 31.492187 14.125 31.492187 31.488281 0 17.367188-14.128906 31.492188-31.492187 31.492188zm0 0"/><path fill="#FFFFFF" d="m240.484375 255.816406c5.527344 0 10.003906-4.480468 10.003906-10.007812 0-5.496094-4.476562-9.976563-10.003906-9.976563-5.5 0-10.007813 4.480469-10.007813 9.976563 0 5.527344 4.507813 10.007812 10.007813 10.007812zm0 0"/></g></svg>